<svg className="fill-black" width="48" height="49" viewBox="0 0 48 49" fill="none" xmlns="http://www.w3.org/2000/svg">
    <path
        d="M5.48096 25.9109V23.9273C5.62083 23.94 5.79884 23.9273 6.015 23.9147C7.55352 23.7748 7.98584 23.0882 7.98584 21.6768V16.9086C7.98584 15.3701 8.32914 14.213 9.01577 13.4247C9.68966 12.6363 10.8722 12.2422 12.5505 12.2422C12.8176 12.2422 13.1227 12.2548 13.4406 12.2803V14.2892C12.2073 14.2512 11.4825 14.3783 10.923 14.8234C10.3508 15.281 10.1347 16.0821 10.1347 17.4171V21.8548C10.1347 23.5078 9.67695 24.5249 8.76146 24.9191C9.76595 25.415 10.2618 26.4322 10.2618 27.9708V32.243C10.2618 33.7179 10.4144 34.519 10.9357 35.0022C11.4571 35.4853 12.131 35.5744 13.4406 35.5363V37.5325C13.11 37.5707 12.8176 37.5834 12.5505 37.5834C10.8213 37.5834 9.61338 37.1129 8.93947 36.2356C8.26557 35.3582 7.98584 34.2647 7.98584 32.7516V28.1614C7.98584 26.7501 7.56623 26.0635 6.05314 25.9236C5.81155 25.9109 5.62083 25.8982 5.48096 25.9109Z"
        fill="currentColor"/>
    <path
        d="M25.2674 32.2559H17.3076V14.9888H24.7588C26.3481 14.9888 27.6196 15.4593 28.5859 16.3875C29.5396 17.3157 30.0228 18.4601 30.0228 19.8206C30.0228 20.5199 29.8575 21.1938 29.5141 21.8296C29.1709 22.478 28.7131 22.9612 28.1283 23.3045C28.9293 23.6477 29.5523 24.1692 29.9974 24.8811C30.4424 25.6059 30.6713 26.3942 30.6713 27.2589C30.6713 28.6702 30.1627 29.8655 29.1327 30.8192C28.1028 31.7728 26.8185 32.2559 25.2674 32.2559ZM25.2674 24.5888H19.9906V29.8655H25.2674C26.0939 29.8655 26.755 29.6112 27.2636 29.0898C27.7722 28.5685 28.0265 27.9455 28.0265 27.208C28.0265 26.5087 27.7722 25.8857 27.2509 25.3644C26.7296 24.8431 26.0684 24.5888 25.2674 24.5888ZM19.9906 17.3666V22.3381H24.7588C25.5344 22.3381 26.1574 22.0966 26.6279 21.6133C27.0983 21.1429 27.3272 20.558 27.3272 19.8841C27.3272 19.2102 27.0983 18.6254 26.6406 18.1167C26.1701 17.6208 25.5471 17.3666 24.7588 17.3666H19.9906Z"
        fill="currentColor" />
    <path
        d="M36.7576 21.8548V17.4171C36.7576 16.0821 36.5414 15.281 35.9819 14.8234C35.4098 14.3783 34.685 14.2512 33.4517 14.2892V12.2803C33.7696 12.2548 34.062 12.2422 34.3418 12.2422C36.0201 12.2422 37.2026 12.6363 37.8892 13.4247C38.5631 14.213 38.9065 15.3701 38.9065 16.9086V21.6768C38.9065 23.0882 39.3388 23.7748 40.8773 23.9147C41.0935 23.9273 41.2714 23.94 41.4113 23.9273V25.9109C41.2714 25.8982 41.0808 25.9109 40.8392 25.9236C39.3261 26.0635 38.9065 26.7501 38.9065 28.1614V32.7516C38.9065 34.2647 38.6267 35.3582 37.9528 36.2356C37.2789 37.1129 36.071 37.5834 34.3418 37.5834C34.0748 37.5834 33.7823 37.5707 33.4517 37.5325V35.5363C34.7613 35.5744 35.4353 35.4853 35.9566 35.0022C36.4779 34.519 36.6305 33.7179 36.6305 32.243V27.9708C36.6305 26.4322 37.1263 25.415 38.1309 24.9191C37.2153 24.5249 36.7576 23.5078 36.7576 21.8548Z"
        fill="currentColor" />
</svg>