<svg width="481" height="320" viewBox="0 0 481 320" fill="none" xmlns="http://www.w3.org/2000/svg">
    <g clip-path="url(#clip0_861_265)">
        <path
            d="M500.46 97.2589C500.46 188.079 426.836 261.703 336.016 261.703C245.196 261.703 171.572 188.079 171.572 97.2589C171.572 6.43898 245.196 -67.1851 336.016 -67.1851C426.836 -67.1851 500.46 6.43898 500.46 97.2589Z"
            fill="#FFF5F5" stroke="#E8B0B0" strokeWidth="2.11221" />
        <path
            d="M263.156 82.18C262.244 82.18 261.398 82.018 260.618 81.694C259.85 81.358 259.178 80.896 258.602 80.308C258.026 79.708 257.582 79.018 257.27 78.238C256.958 77.446 256.802 76.6 256.802 75.7C256.802 74.8 256.958 73.96 257.27 73.18C257.582 72.388 258.026 71.698 258.602 71.11C259.178 70.522 259.85 70.06 260.618 69.724C261.398 69.388 262.244 69.22 263.156 69.22C264.176 69.22 265.058 69.388 265.802 69.724C266.546 70.06 267.206 70.516 267.782 71.092L266.378 72.496C266.006 72.088 265.55 71.77 265.01 71.542C264.482 71.314 263.864 71.2 263.156 71.2C262.532 71.2 261.962 71.308 261.446 71.524C260.93 71.74 260.48 72.052 260.096 72.46C259.724 72.856 259.436 73.33 259.232 73.882C259.028 74.434 258.926 75.04 258.926 75.7C258.926 76.36 259.028 76.966 259.232 77.518C259.436 78.07 259.724 78.55 260.096 78.958C260.48 79.354 260.93 79.66 261.446 79.876C261.962 80.092 262.532 80.2 263.156 80.2C263.924 80.2 264.572 80.086 265.1 79.858C265.64 79.618 266.096 79.294 266.468 78.886L267.872 80.29C267.296 80.878 266.618 81.34 265.838 81.676C265.058 82.012 264.164 82.18 263.156 82.18ZM273.146 82.18C272.306 82.18 271.544 81.982 270.86 81.586C270.176 81.178 269.63 80.632 269.222 79.948C268.826 79.264 268.628 78.502 268.628 77.662C268.628 76.822 268.826 76.066 269.222 75.394C269.63 74.722 270.176 74.188 270.86 73.792C271.544 73.384 272.306 73.18 273.146 73.18C273.998 73.18 274.766 73.378 275.45 73.774C276.134 74.17 276.674 74.71 277.07 75.394C277.478 76.066 277.682 76.822 277.682 77.662C277.682 78.502 277.478 79.264 277.07 79.948C276.674 80.632 276.134 81.178 275.45 81.586C274.766 81.982 273.998 82.18 273.146 82.18ZM273.146 80.272C273.638 80.272 274.07 80.164 274.442 79.948C274.826 79.72 275.12 79.408 275.324 79.012C275.54 78.616 275.648 78.166 275.648 77.662C275.648 77.158 275.54 76.714 275.324 76.33C275.108 75.946 274.814 75.646 274.442 75.43C274.07 75.202 273.638 75.088 273.146 75.088C272.666 75.088 272.234 75.202 271.85 75.43C271.478 75.646 271.184 75.946 270.968 76.33C270.764 76.714 270.662 77.158 270.662 77.662C270.662 78.166 270.764 78.616 270.968 79.012C271.184 79.408 271.478 79.72 271.85 79.948C272.234 80.164 272.666 80.272 273.146 80.272ZM285.25 82V77.014C285.25 76.438 285.064 75.964 284.692 75.592C284.332 75.22 283.864 75.034 283.288 75.034C282.904 75.034 282.562 75.118 282.262 75.286C281.962 75.454 281.728 75.688 281.56 75.988C281.392 76.288 281.308 76.63 281.308 77.014L280.534 76.582C280.534 75.922 280.678 75.34 280.966 74.836C281.254 74.32 281.65 73.918 282.154 73.63C282.67 73.33 283.246 73.18 283.882 73.18C284.53 73.18 285.106 73.348 285.61 73.684C286.114 74.008 286.51 74.434 286.798 74.962C287.086 75.478 287.23 76.018 287.23 76.582V82H285.25ZM279.328 82V73.36H281.308V82H279.328ZM290.451 82V69.76H292.431V82H290.451ZM288.381 75.16V73.36H294.501V75.16H288.381ZM295.94 82V73.36H297.92V82H295.94ZM297.92 77.194L297.236 76.852C297.236 75.76 297.476 74.878 297.956 74.206C298.448 73.522 299.186 73.18 300.17 73.18C300.602 73.18 300.992 73.258 301.34 73.414C301.688 73.57 302.012 73.822 302.312 74.17L301.016 75.502C300.86 75.334 300.686 75.214 300.494 75.142C300.302 75.07 300.08 75.034 299.828 75.034C299.276 75.034 298.82 75.208 298.46 75.556C298.1 75.904 297.92 76.45 297.92 77.194ZM306.624 82.18C305.844 82.18 305.136 81.982 304.5 81.586C303.876 81.19 303.378 80.656 303.006 79.984C302.646 79.3 302.466 78.538 302.466 77.698C302.466 76.846 302.646 76.084 303.006 75.412C303.378 74.728 303.876 74.188 304.5 73.792C305.136 73.384 305.844 73.18 306.624 73.18C307.284 73.18 307.866 73.324 308.37 73.612C308.886 73.888 309.294 74.272 309.594 74.764C309.894 75.256 310.044 75.814 310.044 76.438V78.922C310.044 79.546 309.894 80.104 309.594 80.596C309.306 81.088 308.904 81.478 308.388 81.766C307.872 82.042 307.284 82.18 306.624 82.18ZM306.948 80.308C307.68 80.308 308.268 80.062 308.712 79.57C309.168 79.078 309.396 78.448 309.396 77.68C309.396 77.164 309.294 76.708 309.09 76.312C308.886 75.916 308.598 75.61 308.226 75.394C307.866 75.166 307.44 75.052 306.948 75.052C306.468 75.052 306.042 75.166 305.67 75.394C305.31 75.61 305.022 75.916 304.806 76.312C304.602 76.708 304.5 77.164 304.5 77.68C304.5 78.196 304.602 78.652 304.806 79.048C305.022 79.444 305.31 79.756 305.67 79.984C306.042 80.2 306.468 80.308 306.948 80.308ZM309.27 82V79.678L309.612 77.572L309.27 75.484V73.36H311.25V82H309.27ZM317.426 82.18C316.574 82.18 315.8 81.982 315.104 81.586C314.42 81.19 313.88 80.65 313.484 79.966C313.088 79.282 312.89 78.52 312.89 77.68C312.89 76.828 313.088 76.066 313.484 75.394C313.88 74.71 314.42 74.17 315.104 73.774C315.8 73.378 316.574 73.18 317.426 73.18C318.098 73.18 318.722 73.312 319.298 73.576C319.886 73.828 320.384 74.194 320.792 74.674L319.496 75.988C319.244 75.688 318.938 75.466 318.578 75.322C318.23 75.166 317.846 75.088 317.426 75.088C316.934 75.088 316.496 75.202 316.112 75.43C315.74 75.646 315.446 75.946 315.23 76.33C315.026 76.714 314.924 77.164 314.924 77.68C314.924 78.184 315.026 78.634 315.23 79.03C315.446 79.414 315.74 79.72 316.112 79.948C316.496 80.164 316.934 80.272 317.426 80.272C317.846 80.272 318.23 80.2 318.578 80.056C318.938 79.9 319.244 79.672 319.496 79.372L320.792 80.686C320.384 81.166 319.886 81.538 319.298 81.802C318.722 82.054 318.098 82.18 317.426 82.18ZM323.392 82V69.76H325.372V82H323.392ZM321.322 75.16V73.36H327.442V75.16H321.322ZM334.177 82V80.11H337.489C338.353 80.11 339.109 79.924 339.757 79.552C340.417 79.18 340.927 78.664 341.287 78.004C341.659 77.332 341.845 76.558 341.845 75.682C341.845 74.818 341.659 74.056 341.287 73.396C340.915 72.736 340.399 72.22 339.739 71.848C339.091 71.476 338.341 71.29 337.489 71.29H334.177V69.4H337.543C338.455 69.4 339.301 69.562 340.081 69.886C340.861 70.198 341.539 70.642 342.115 71.218C342.703 71.782 343.159 72.448 343.483 73.216C343.807 73.972 343.969 74.8 343.969 75.7C343.969 76.588 343.807 77.416 343.483 78.184C343.159 78.952 342.709 79.624 342.133 80.2C341.557 80.764 340.879 81.208 340.099 81.532C339.319 81.844 338.479 82 337.579 82H334.177ZM332.755 82V69.4H334.825V82H332.755ZM349.823 82.18C348.959 82.18 348.179 81.988 347.483 81.604C346.799 81.208 346.253 80.668 345.845 79.984C345.449 79.3 345.251 78.532 345.251 77.68C345.251 76.828 345.449 76.066 345.845 75.394C346.241 74.71 346.775 74.17 347.447 73.774C348.131 73.378 348.887 73.18 349.715 73.18C350.519 73.18 351.227 73.366 351.839 73.738C352.463 74.11 352.949 74.62 353.297 75.268C353.657 75.916 353.837 76.654 353.837 77.482C353.837 77.626 353.825 77.776 353.801 77.932C353.789 78.076 353.765 78.238 353.729 78.418H346.637V76.798H352.703L351.965 77.446C351.941 76.918 351.839 76.474 351.659 76.114C351.479 75.754 351.221 75.478 350.885 75.286C350.561 75.094 350.159 74.998 349.679 74.998C349.175 74.998 348.737 75.106 348.365 75.322C347.993 75.538 347.705 75.844 347.501 76.24C347.297 76.624 347.195 77.086 347.195 77.626C347.195 78.166 347.303 78.64 347.519 79.048C347.735 79.456 348.041 79.774 348.437 80.002C348.833 80.218 349.289 80.326 349.805 80.326C350.249 80.326 350.657 80.248 351.029 80.092C351.413 79.936 351.737 79.708 352.001 79.408L353.261 80.686C352.841 81.178 352.331 81.55 351.731 81.802C351.131 82.054 350.495 82.18 349.823 82.18ZM358.2 82L354.258 73.36H356.454L359.46 80.398H358.164L361.188 73.36H363.294L359.352 82H358.2ZM368.175 82.18C367.311 82.18 366.531 81.988 365.835 81.604C365.151 81.208 364.605 80.668 364.197 79.984C363.801 79.3 363.603 78.532 363.603 77.68C363.603 76.828 363.801 76.066 364.197 75.394C364.593 74.71 365.127 74.17 365.799 73.774C366.483 73.378 367.239 73.18 368.067 73.18C368.871 73.18 369.579 73.366 370.191 73.738C370.815 74.11 371.301 74.62 371.649 75.268C372.009 75.916 372.189 76.654 372.189 77.482C372.189 77.626 372.177 77.776 372.152 77.932C372.141 78.076 372.117 78.238 372.081 78.418H364.989V76.798H371.055L370.317 77.446C370.293 76.918 370.191 76.474 370.011 76.114C369.831 75.754 369.573 75.478 369.237 75.286C368.913 75.094 368.511 74.998 368.031 74.998C367.527 74.998 367.089 75.106 366.717 75.322C366.345 75.538 366.057 75.844 365.853 76.24C365.649 76.624 365.547 77.086 365.547 77.626C365.547 78.166 365.655 78.64 365.871 79.048C366.087 79.456 366.393 79.774 366.789 80.002C367.185 80.218 367.641 80.326 368.157 80.326C368.601 80.326 369.009 80.248 369.381 80.092C369.765 79.936 370.089 79.708 370.353 79.408L371.613 80.686C371.193 81.178 370.683 81.55 370.083 81.802C369.483 82.054 368.847 82.18 368.175 82.18ZM373.776 82V69.04H375.756V82H373.776ZM381.919 82.18C381.079 82.18 380.317 81.982 379.633 81.586C378.949 81.178 378.403 80.632 377.995 79.948C377.599 79.264 377.401 78.502 377.401 77.662C377.401 76.822 377.599 76.066 377.995 75.394C378.403 74.722 378.949 74.188 379.633 73.792C380.317 73.384 381.079 73.18 381.919 73.18C382.771 73.18 383.539 73.378 384.223 73.774C384.907 74.17 385.447 74.71 385.843 75.394C386.251 76.066 386.455 76.822 386.455 77.662C386.455 78.502 386.251 79.264 385.843 79.948C385.447 80.632 384.907 81.178 384.223 81.586C383.539 81.982 382.771 82.18 381.919 82.18ZM381.919 80.272C382.411 80.272 382.843 80.164 383.215 79.948C383.599 79.72 383.893 79.408 384.097 79.012C384.313 78.616 384.421 78.166 384.421 77.662C384.421 77.158 384.313 76.714 384.097 76.33C383.881 75.946 383.587 75.646 383.215 75.43C382.843 75.202 382.411 75.088 381.919 75.088C381.439 75.088 381.007 75.202 380.623 75.43C380.251 75.646 379.957 75.946 379.741 76.33C379.537 76.714 379.435 77.158 379.435 77.662C379.435 78.166 379.537 78.616 379.741 79.012C379.957 79.408 380.251 79.72 380.623 79.948C381.007 80.164 381.439 80.272 381.919 80.272ZM392.728 82.18C392.068 82.18 391.48 82.042 390.964 81.766C390.448 81.478 390.04 81.088 389.74 80.596C389.452 80.104 389.308 79.546 389.308 78.922V76.438C389.308 75.814 389.458 75.256 389.758 74.764C390.058 74.272 390.466 73.888 390.982 73.612C391.498 73.324 392.08 73.18 392.728 73.18C393.508 73.18 394.21 73.384 394.834 73.792C395.47 74.188 395.968 74.728 396.328 75.412C396.7 76.084 396.886 76.846 396.886 77.698C396.886 78.538 396.7 79.3 396.328 79.984C395.968 80.656 395.47 81.19 394.834 81.586C394.21 81.982 393.508 82.18 392.728 82.18ZM392.404 80.308C392.884 80.308 393.304 80.2 393.664 79.984C394.036 79.756 394.324 79.444 394.528 79.048C394.744 78.652 394.852 78.196 394.852 77.68C394.852 77.164 394.744 76.708 394.528 76.312C394.324 75.916 394.036 75.61 393.664 75.394C393.304 75.166 392.884 75.052 392.404 75.052C391.924 75.052 391.498 75.166 391.126 75.394C390.754 75.61 390.466 75.916 390.262 76.312C390.058 76.708 389.956 77.164 389.956 77.68C389.956 78.196 390.058 78.652 390.262 79.048C390.466 79.444 390.754 79.756 391.126 79.984C391.498 80.2 391.924 80.308 392.404 80.308ZM388.102 85.6V73.36H390.082V75.682L389.74 77.788L390.082 79.876V85.6H388.102ZM402.557 82.18C401.693 82.18 400.913 81.988 400.217 81.604C399.533 81.208 398.987 80.668 398.579 79.984C398.183 79.3 397.985 78.532 397.985 77.68C397.985 76.828 398.183 76.066 398.579 75.394C398.975 74.71 399.509 74.17 400.181 73.774C400.865 73.378 401.621 73.18 402.449 73.18C403.253 73.18 403.961 73.366 404.573 73.738C405.197 74.11 405.683 74.62 406.031 75.268C406.391 75.916 406.571 76.654 406.571 77.482C406.571 77.626 406.559 77.776 406.535 77.932C406.523 78.076 406.499 78.238 406.463 78.418H399.371V76.798H405.437L404.699 77.446C404.675 76.918 404.573 76.474 404.393 76.114C404.213 75.754 403.955 75.478 403.619 75.286C403.295 75.094 402.893 74.998 402.413 74.998C401.909 74.998 401.471 75.106 401.099 75.322C400.727 75.538 400.439 75.844 400.235 76.24C400.031 76.624 399.929 77.086 399.929 77.626C399.929 78.166 400.037 78.64 400.253 79.048C400.469 79.456 400.775 79.774 401.171 80.002C401.567 80.218 402.023 80.326 402.539 80.326C402.983 80.326 403.391 80.248 403.763 80.092C404.147 79.936 404.471 79.708 404.735 79.408L405.995 80.686C405.575 81.178 405.065 81.55 404.465 81.802C403.865 82.054 403.229 82.18 402.557 82.18ZM408.159 82V73.36H410.139V82H408.159ZM410.139 77.194L409.455 76.852C409.455 75.76 409.695 74.878 410.175 74.206C410.667 73.522 411.405 73.18 412.389 73.18C412.821 73.18 413.211 73.258 413.559 73.414C413.907 73.57 414.231 73.822 414.531 74.17L413.235 75.502C413.079 75.334 412.905 75.214 412.713 75.142C412.521 75.07 412.299 75.034 412.047 75.034C411.495 75.034 411.039 75.208 410.679 75.556C410.319 75.904 410.139 76.45 410.139 77.194Z"
            fill="#E8B0B0" />
        <path
            d="M284.148 143.48C281.716 143.48 279.588 143 277.764 142.04C275.972 141.08 274.34 139.672 272.868 137.816L276.564 134.12C277.492 135.464 278.58 136.552 279.828 137.384C281.076 138.216 282.58 138.632 284.34 138.632C286.196 138.632 287.668 138.232 288.756 137.432C289.876 136.632 290.436 135.496 290.436 134.024C290.436 132.904 290.148 131.992 289.572 131.288C288.996 130.584 288.228 130.008 287.268 129.56C286.34 129.08 285.3 128.664 284.148 128.312C283.028 127.928 281.892 127.512 280.74 127.064C279.62 126.584 278.58 125.992 277.62 125.288C276.692 124.584 275.94 123.672 275.364 122.552C274.788 121.432 274.5 120.008 274.5 118.28C274.5 116.296 274.98 114.616 275.94 113.24C276.932 111.832 278.26 110.76 279.924 110.024C281.588 109.288 283.444 108.92 285.492 108.92C287.476 108.92 289.316 109.352 291.012 110.216C292.708 111.08 294.1 112.184 295.188 113.528L291.492 117.224C290.532 116.136 289.54 115.288 288.516 114.68C287.524 114.072 286.468 113.768 285.348 113.768C283.556 113.768 282.18 114.12 281.22 114.824C280.26 115.496 279.78 116.52 279.78 117.896C279.78 118.92 280.068 119.752 280.644 120.392C281.252 121 282.036 121.528 282.996 121.976C283.956 122.392 284.996 122.792 286.116 123.176C287.268 123.56 288.42 123.992 289.572 124.472C290.724 124.952 291.78 125.576 292.74 126.344C293.7 127.08 294.468 128.04 295.044 129.224C295.652 130.408 295.956 131.896 295.956 133.688C295.956 136.696 294.884 139.08 292.74 140.84C290.628 142.6 287.764 143.48 284.148 143.48ZM283.38 147.8V104.6H287.22V147.8H283.38ZM303.8 143L316.04 112.76H321.512L309.56 143H303.8ZM299 114.344V109.4H321.512V112.76L319.16 114.344H299ZM334.686 143.48C332.35 143.48 330.27 143.08 328.446 142.28C326.622 141.448 325.086 140.248 323.838 138.68L327.582 134.936C328.254 135.96 329.198 136.776 330.414 137.384C331.662 137.992 333.054 138.296 334.59 138.296C335.998 138.296 337.23 138.04 338.286 137.528C339.342 137.016 340.174 136.28 340.782 135.32C341.39 134.36 341.694 133.224 341.694 131.912C341.694 130.536 341.39 129.4 340.782 128.504C340.206 127.576 339.422 126.888 338.43 126.44C337.47 125.96 336.43 125.72 335.31 125.72C334.03 125.72 332.878 125.864 331.854 126.152C330.862 126.44 329.886 126.952 328.926 127.688L329.07 124.232C329.582 123.56 330.174 123.016 330.846 122.6C331.518 122.152 332.302 121.816 333.198 121.592C334.094 121.368 335.15 121.256 336.366 121.256C338.734 121.256 340.718 121.752 342.318 122.744C343.95 123.736 345.182 125.064 346.014 126.728C346.846 128.36 347.262 130.184 347.262 132.2C347.262 134.376 346.718 136.312 345.63 138.008C344.574 139.704 343.102 141.048 341.214 142.04C339.326 143 337.15 143.48 334.686 143.48ZM328.926 127.688L325.902 124.664L327.39 109.4H332.43L330.702 125.288L328.926 127.688ZM328.35 114.344L327.39 109.4H345.39V114.344H328.35ZM366.554 143L356.81 131.24L366.506 119.96H372.794L361.658 132.632L361.898 129.608L373.274 143H366.554ZM351.914 143V108.44H357.194V143H351.914ZM376.046 129.32V124.52H397.214V129.32H376.046ZM384.206 115.832H389.102V137.96H384.206V115.832Z"
            fill="#E8B0B0" />
        <path
            d="M205.817 274.741C205.817 336.873 155.449 387.241 93.3174 387.241C31.1853 387.241 -19.1826 336.873 -19.1826 274.741C-19.1826 212.609 31.1853 162.241 93.3174 162.241C155.449 162.241 205.817 212.609 205.817 274.741Z"
            fill="#E6FFED" stroke="#B8E8B0" strokeWidth="2" />
        <path
            d="M61.7851 234V232.2H65.4031C66.0391 232.2 66.5311 232.002 66.8791 231.606C67.2271 231.21 67.4011 230.754 67.4011 230.238C67.4011 229.89 67.3231 229.566 67.1671 229.266C67.0111 228.966 66.7831 228.726 66.4831 228.546C66.1831 228.366 65.8231 228.276 65.4031 228.276H61.7851V226.476H65.0971C65.6371 226.476 66.0691 226.338 66.3931 226.062C66.7171 225.786 66.8791 225.378 66.8791 224.838C66.8791 224.298 66.7171 223.89 66.3931 223.614C66.0691 223.338 65.6371 223.2 65.0971 223.2H61.7851V221.4H65.1511C66.0031 221.4 66.7111 221.556 67.2751 221.868C67.8391 222.18 68.2591 222.582 68.5351 223.074C68.8111 223.566 68.9491 224.094 68.9491 224.658C68.9491 225.318 68.7631 225.9 68.3911 226.404C68.0311 226.908 67.4971 227.316 66.7891 227.628L66.9511 226.98C67.7431 227.304 68.3611 227.76 68.8051 228.348C69.2491 228.936 69.4711 229.626 69.4711 230.418C69.4711 231.066 69.3091 231.66 68.9851 232.2C68.6731 232.74 68.2051 233.178 67.5811 233.514C66.9691 233.838 66.2131 234 65.3131 234H61.7851ZM60.3631 234V221.4H62.4331V234H60.3631ZM71.2904 234V225.36H73.2704V234H71.2904ZM73.2704 229.194L72.5864 228.852C72.5864 227.76 72.8264 226.878 73.3064 226.206C73.7984 225.522 74.5364 225.18 75.5204 225.18C75.9524 225.18 76.3424 225.258 76.6904 225.414C77.0384 225.57 77.3624 225.822 77.6624 226.17L76.3664 227.502C76.2104 227.334 76.0364 227.214 75.8444 227.142C75.6524 227.07 75.4304 227.034 75.1784 227.034C74.6264 227.034 74.1704 227.208 73.8104 227.556C73.4504 227.904 73.2704 228.45 73.2704 229.194ZM82.3708 234.18C81.5068 234.18 80.7268 233.988 80.0308 233.604C79.3468 233.208 78.8008 232.668 78.3928 231.984C77.9968 231.3 77.7988 230.532 77.7988 229.68C77.7988 228.828 77.9968 228.066 78.3928 227.394C78.7888 226.71 79.3228 226.17 79.9948 225.774C80.6788 225.378 81.4348 225.18 82.2628 225.18C83.0668 225.18 83.7748 225.366 84.3868 225.738C85.0108 226.11 85.4968 226.62 85.8448 227.268C86.2048 227.916 86.3848 228.654 86.3848 229.482C86.3848 229.626 86.3728 229.776 86.3488 229.932C86.3368 230.076 86.3128 230.238 86.2768 230.418H79.1848V228.798H85.2508L84.5128 229.446C84.4888 228.918 84.3868 228.474 84.2068 228.114C84.0268 227.754 83.7688 227.478 83.4328 227.286C83.1088 227.094 82.7068 226.998 82.2268 226.998C81.7228 226.998 81.2848 227.106 80.9128 227.322C80.5408 227.538 80.2528 227.844 80.0488 228.24C79.8448 228.624 79.7428 229.086 79.7428 229.626C79.7428 230.166 79.8508 230.64 80.0668 231.048C80.2828 231.456 80.5888 231.774 80.9848 232.002C81.3808 232.218 81.8368 232.326 82.3528 232.326C82.7968 232.326 83.2048 232.248 83.5768 232.092C83.9608 231.936 84.2848 231.708 84.5488 231.408L85.8088 232.686C85.3888 233.178 84.8788 233.55 84.2788 233.802C83.6788 234.054 83.0428 234.18 82.3708 234.18ZM90.3866 234L86.9126 225.36H88.9646L91.3046 231.642L90.6926 231.66L92.9786 225.36H94.1306L96.4166 231.66L95.8046 231.642L98.1446 225.36H100.197L96.7226 234H95.5706L93.2306 228.024H93.8786L91.5386 234H90.3866ZM102.369 234.18C101.985 234.18 101.667 234.054 101.415 233.802C101.175 233.538 101.055 233.22 101.055 232.848C101.055 232.464 101.175 232.146 101.415 231.894C101.667 231.642 101.985 231.516 102.369 231.516C102.753 231.516 103.065 231.642 103.305 231.894C103.557 232.146 103.683 232.464 103.683 232.848C103.683 233.22 103.557 233.538 103.305 233.802C103.065 234.054 102.753 234.18 102.369 234.18ZM106.347 234V221.4H108.417V234H106.347ZM107.769 234V232.11H114.357V234H107.769ZM114.886 234L120.07 221.4H121.51L126.658 234H124.426L120.394 223.794H121.15L117.082 234H114.886ZM117.442 231.57V229.77H124.12V231.57H117.442Z"
            fill="#B8E8B0" />
        <path
            d="M60.3431 271.208C59.6471 271.208 59.0351 271.124 58.5071 270.956C58.0031 270.788 57.5351 270.596 57.1031 270.38C56.6711 270.14 56.2391 269.936 55.8071 269.768C55.3991 269.6 54.9311 269.516 54.4031 269.516C53.8511 269.516 53.3231 269.636 52.8191 269.876C52.3391 270.116 51.8831 270.476 51.4511 270.956L49.2191 268.688C49.8671 267.704 50.6111 266.972 51.4511 266.492C52.3151 265.988 53.2631 265.736 54.2951 265.736C54.9911 265.736 55.5911 265.82 56.0951 265.988C56.6231 266.156 57.1031 266.36 57.5351 266.6C57.9671 266.816 58.3871 267.008 58.7951 267.176C59.2271 267.344 59.7071 267.428 60.2351 267.428C60.7871 267.428 61.3031 267.308 61.7831 267.068C62.2871 266.828 62.7551 266.468 63.1871 265.988L65.4191 268.256C64.7711 269.216 64.0151 269.948 63.1511 270.452C62.3111 270.956 61.3751 271.208 60.3431 271.208ZM76.8159 281.36C74.9919 281.36 73.3959 281 72.0279 280.28C70.6839 279.56 69.4599 278.504 68.3559 277.112L71.1279 274.34C71.8239 275.348 72.6399 276.164 73.5759 276.788C74.5119 277.412 75.6399 277.724 76.9599 277.724C78.3519 277.724 79.4559 277.424 80.2719 276.824C81.1119 276.224 81.5319 275.372 81.5319 274.268C81.5319 273.428 81.3159 272.744 80.8839 272.216C80.4519 271.688 79.8759 271.256 79.1559 270.92C78.4599 270.56 77.6799 270.248 76.8159 269.984C75.9759 269.696 75.1239 269.384 74.2599 269.048C73.4199 268.688 72.6399 268.244 71.9199 267.716C71.2239 267.188 70.6599 266.504 70.2279 265.664C69.7959 264.824 69.5799 263.756 69.5799 262.46C69.5799 260.972 69.9399 259.712 70.6599 258.68C71.4039 257.624 72.3999 256.82 73.6479 256.268C74.8959 255.716 76.2879 255.44 77.8239 255.44C79.3119 255.44 80.6919 255.764 81.9639 256.412C83.2359 257.06 84.2799 257.888 85.0959 258.896L82.3239 261.668C81.6039 260.852 80.8599 260.216 80.0919 259.76C79.3479 259.304 78.5559 259.076 77.7159 259.076C76.3719 259.076 75.3399 259.34 74.6199 259.868C73.8999 260.372 73.5399 261.14 73.5399 262.172C73.5399 262.94 73.7559 263.564 74.1879 264.044C74.6439 264.5 75.2319 264.896 75.9519 265.232C76.6719 265.544 77.4519 265.844 78.2919 266.132C79.1559 266.42 80.0199 266.744 80.8839 267.104C81.7479 267.464 82.5399 267.932 83.2599 268.508C83.9799 269.06 84.5559 269.78 84.9879 270.668C85.4439 271.556 85.6719 272.672 85.6719 274.016C85.6719 276.272 84.8679 278.06 83.2599 279.38C81.6759 280.7 79.5279 281.36 76.8159 281.36ZM76.2399 284.6V252.2H79.1199V284.6H76.2399ZM93.6274 281V255.8H97.6954V281H93.6274ZM88.5874 259.508V255.8H97.3354V259.508H88.5874ZM110.312 281.36C108.584 281.36 107.084 281.048 105.812 280.424C104.54 279.8 103.544 278.936 102.824 277.832C102.128 276.704 101.78 275.432 101.78 274.016C101.78 272.888 101.996 271.856 102.428 270.92C102.884 269.96 103.532 269.144 104.372 268.472C105.236 267.8 106.256 267.32 107.432 267.032L107.324 268.184C106.364 267.92 105.548 267.488 104.876 266.888C104.228 266.288 103.736 265.58 103.4 264.764C103.064 263.948 102.896 263.096 102.896 262.208C102.896 260.864 103.208 259.688 103.832 258.68C104.48 257.648 105.368 256.844 106.496 256.268C107.624 255.692 108.896 255.404 110.312 255.404C111.752 255.404 113.024 255.692 114.128 256.268C115.256 256.844 116.132 257.648 116.756 258.68C117.404 259.688 117.728 260.864 117.728 262.208C117.728 263.096 117.56 263.948 117.224 264.764C116.888 265.58 116.396 266.288 115.748 266.888C115.1 267.488 114.284 267.92 113.3 268.184L113.192 267.032C114.392 267.32 115.412 267.8 116.252 268.472C117.092 269.144 117.728 269.96 118.16 270.92C118.616 271.856 118.844 272.888 118.844 274.016C118.844 275.432 118.496 276.704 117.8 277.832C117.104 278.936 116.108 279.8 114.812 280.424C113.54 281.048 112.04 281.36 110.312 281.36ZM110.312 277.616C111.2 277.616 111.98 277.436 112.652 277.076C113.348 276.716 113.888 276.224 114.272 275.6C114.68 274.976 114.884 274.268 114.884 273.476C114.884 272.66 114.68 271.952 114.272 271.352C113.888 270.728 113.348 270.236 112.652 269.876C111.98 269.516 111.2 269.336 110.312 269.336C109.424 269.336 108.632 269.516 107.936 269.876C107.264 270.236 106.724 270.728 106.316 271.352C105.932 271.952 105.74 272.66 105.74 273.476C105.74 274.268 105.932 274.976 106.316 275.6C106.724 276.224 107.264 276.716 107.936 277.076C108.632 277.436 109.424 277.616 110.312 277.616ZM110.312 266.096C111.368 266.096 112.232 265.76 112.904 265.088C113.576 264.416 113.912 263.552 113.912 262.496C113.912 261.44 113.576 260.588 112.904 259.94C112.232 259.268 111.368 258.932 110.312 258.932C109.28 258.932 108.416 259.268 107.72 259.94C107.048 260.588 106.712 261.44 106.712 262.496C106.712 263.552 107.048 264.416 107.72 265.088C108.416 265.76 109.28 266.096 110.312 266.096ZM133.347 281L126.039 272.18L133.311 263.72H138.027L129.675 273.224L129.855 270.956L138.387 281H133.347ZM122.367 281V255.08H126.327V281H122.367Z"
            fill="#B8E8B0" />
    </g>
    <defs>
        <clipPath id="clip0_861_265">
            <rect width="480" height="320" fill="white" transform="translate(0.666504)" />
        </clipPath>
    </defs>
</svg>
    