<svg width="198" height="61" viewBox="0 0 198 61" fill="none" xmlns="http://www.w3.org/2000/svg">
    <path
        d="M9.16797 43.2805V22.3936L14.483 25.4626V34.321L14.5841 34.3791L20.1747 28.7479L25.7524 31.968L19.798 37.7946L26.0291 53.0142L19.8492 49.4465L15.9001 39.4802L14.483 40.8776V46.3484L9.16797 43.2805Z"
        fill="white" />
    <path
        d="M28.1709 53.6645V32.7775L37.0583 27.6462C40.7935 25.4897 42.9755 26.1989 42.9755 29.4993V29.5283C42.9755 31.9452 41.3573 34.7015 39.252 36.2221V36.3383C41.6828 35.0061 43.7393 35.9036 43.7393 38.625V38.6541C43.7393 42.2869 41.2318 46.1232 37.3583 48.3599L28.1709 53.6645ZM35.6156 32.6764L33.4848 33.9063V38.1612L35.3913 37.0614C36.9828 36.143 37.8093 34.841 37.8093 33.4797V33.4506C37.8093 32.1916 36.97 31.894 35.6156 32.6764ZM35.6412 40.6083L33.4848 41.8521V46.3976L35.754 45.0886C37.3838 44.1469 38.3231 42.7938 38.3231 41.3313V41.3034C38.3231 39.8701 37.3966 39.5945 35.6412 40.6083Z"
        fill="white" />
    <path
        d="M27.4218 30.2698L9.33301 19.8258L18.2204 14.6944C21.9556 12.538 25.8419 12.2625 28.7005 13.9132L28.7249 13.9272C30.8186 15.1362 30.7814 16.9823 28.9388 18.3494L29.0388 18.4075C31.5336 17.0392 35.3943 16.8951 37.7507 18.2564L37.7763 18.2703C40.922 20.0862 40.4838 22.7286 36.6103 24.9641L27.4218 30.2698ZM20.4141 17.6251L18.2832 18.8562L21.9684 20.9836L23.8749 19.8839C25.4664 18.9655 25.5792 18.075 24.4004 17.3938L24.376 17.3798C23.2844 16.7498 21.7684 16.8451 20.4141 17.6251ZM27.3206 21.5847L25.1653 22.8286L29.1016 25.1024L31.3697 23.7923C32.9995 22.8506 33.2378 21.9032 31.9718 21.172L31.9474 21.158C30.7059 20.4407 29.076 20.571 27.3206 21.5847Z"
        fill="white" />
    <path d="M28.5312 10.3672L45.9643 20.2451V43.0536" stroke="white" stroke-width="2.32503"
        stroke-linecap="round" />
    <path
        d="M69.749 26.875V11.0217H73.0669V18.2727H73.1438L78.9556 11.0217H82.647L76.967 18.02L83.0535 26.875H79.0874L74.55 20.1843L73.0669 22.019V26.875H69.749ZM84.943 13.5815C83.9762 13.5815 83.2291 12.8235 83.2291 11.9116C83.2291 10.9998 83.9762 10.2417 84.943 10.2417C85.9098 10.2417 86.6569 10.9998 86.6569 11.9116C86.6569 12.8235 85.9098 13.5815 84.943 13.5815ZM83.339 26.875V15.0977H86.547V26.875H83.339ZM92.4795 27.1167C89.8647 27.1167 88.6343 26.106 88.6343 23.5791V17.5146H86.9973V15.0977H88.6343V12.2192H91.8752V15.0977H94.0286V17.5146H91.8752V23.2275C91.8752 24.3262 92.3696 24.6997 93.3364 24.6997C93.6221 24.6997 93.8308 24.6667 94.0286 24.6448V26.9958C93.666 27.0508 93.1497 27.1167 92.4795 27.1167ZM100.104 27.1167C96.5114 27.1167 94.2921 24.7766 94.2921 20.9753V20.9644C94.2921 17.196 96.5443 14.856 100.071 14.856C103.268 14.856 105.3 16.8225 105.421 19.3713V19.4482H102.444L102.422 19.3494C102.224 18.2288 101.444 17.3718 100.115 17.3718C98.5438 17.3718 97.5551 18.7231 97.5551 20.9753V20.9863C97.5551 23.2935 98.5438 24.6008 100.126 24.6008C101.411 24.6008 102.213 23.8098 102.433 22.6233L102.444 22.5244H105.432V22.5903C105.278 25.1611 103.246 27.1167 100.104 27.1167ZM106.157 26.875V11.0217H109.365V17.1301H109.431C110.035 15.6689 111.277 14.856 113.046 14.856C115.594 14.856 117.177 16.6357 117.177 19.4812V26.875H113.969V20.1404C113.969 18.4924 113.156 17.5146 111.694 17.5146C110.277 17.5146 109.365 18.5913 109.365 20.1294V26.875H106.157ZM123.702 27.1167C120.099 27.1167 117.912 24.7766 117.912 21.0083V20.9973C117.912 17.251 120.121 14.856 123.57 14.856C127.02 14.856 129.184 17.196 129.184 20.7556V21.7444H121.077C121.11 23.623 122.131 24.7217 123.768 24.7217C125.087 24.7217 125.889 23.9966 126.119 23.3374L126.141 23.2715H129.086L129.053 23.3923C128.69 25.1282 127.064 27.1167 123.702 27.1167ZM123.625 17.251C122.307 17.251 121.318 18.1299 121.11 19.7229H126.108C125.911 18.0969 124.955 17.251 123.625 17.251ZM129.942 26.875V15.0977H133.15V17.0312H133.216C133.821 15.6799 135.029 14.856 136.809 14.856C139.402 14.856 140.874 16.5149 140.874 19.2725V26.875H137.666V19.9316C137.666 18.3936 136.941 17.5146 135.501 17.5146C134.062 17.5146 133.15 18.5693 133.15 20.1074V26.875H129.942ZM150.794 27.1606C147.432 27.1606 145.268 25.4138 145.268 22.7332V22.7222C145.268 20.9534 146.202 19.5691 148.289 18.4375L148.872 18.1189C147.454 16.5039 146.949 15.5811 146.949 14.5154V14.5044C146.949 12.373 148.85 10.813 151.464 10.813C154.035 10.813 155.859 12.2961 155.859 14.4385V14.4495C155.859 16.0315 154.881 17.3389 152.596 18.5803L155.65 21.7773C156.035 20.8765 156.232 19.7998 156.232 18.4814V17.9761H158.902V18.6133C158.902 20.7007 158.43 22.4036 157.54 23.7659L160.462 26.8201V26.875H156.925L155.782 25.6335C154.475 26.6003 152.805 27.1606 150.794 27.1606ZM149.696 14.6472C149.696 15.3723 150.135 15.9546 151.168 17.0752C152.563 16.3171 153.189 15.592 153.189 14.6472V14.6362C153.189 13.6365 152.475 12.9443 151.453 12.9443C150.443 12.9443 149.696 13.6584 149.696 14.6362V14.6472ZM148.267 22.4695C148.267 23.8977 149.421 24.8315 151.124 24.8315C152.299 24.8315 153.321 24.436 154.112 23.8208L150.41 19.7998L150.058 19.9976C148.762 20.7446 148.267 21.5137 148.267 22.4585V22.4695ZM69.749 49.875V34.0217H76.6484C79.6367 34.0217 81.5154 35.5598 81.5154 37.9988V38.0208C81.5154 39.7566 80.197 41.2397 78.4502 41.4705V41.5364C80.6584 41.7012 82.2515 43.2612 82.2515 45.3376V45.3596C82.2515 48.1392 80.1531 49.875 76.7693 49.875H69.749ZM75.7915 36.4827H73.0669V40.6465H75.385C77.2527 40.6465 78.2524 39.8665 78.2524 38.4932V38.4712C78.2524 37.2078 77.3406 36.4827 75.7915 36.4827ZM75.7805 42.8987H73.0669V47.4031H75.9233C77.824 47.4031 78.8677 46.623 78.8677 45.1509V45.1289C78.8677 43.6787 77.813 42.8987 75.7805 42.8987ZM86.4701 50.0618C84.108 50.0618 82.515 48.5786 82.515 46.5022V46.4802C82.515 44.3379 84.174 43.0854 87.0963 42.8987L90.0077 42.7229V41.9978C90.0077 40.9541 89.3265 40.3059 88.0741 40.3059C86.8766 40.3059 86.1515 40.8662 85.9977 41.6243L85.9757 41.7231H83.0424L83.0533 41.5913C83.2291 39.416 85.0968 37.856 88.2059 37.856C91.2491 37.856 93.2157 39.427 93.2157 41.8V49.875H90.0077V48.1172H89.9418C89.2716 49.3257 88.0192 50.0618 86.4701 50.0618ZM85.6901 46.3374C85.6901 47.2053 86.4042 47.7217 87.5138 47.7217C88.953 47.7217 90.0077 46.7988 90.0077 45.5684V44.7224L87.5797 44.8762C86.3383 44.9531 85.6901 45.4805 85.6901 46.3154V46.3374ZM99.0713 50.1167C96.4565 50.1167 95.2261 49.106 95.2261 46.5791V40.5146H93.5891V38.0977H95.2261V35.2192H98.467V38.0977H100.62V40.5146H98.467V46.2275C98.467 47.3262 98.9614 47.6997 99.9282 47.6997C100.214 47.6997 100.423 47.6667 100.62 47.6448V49.9958C100.258 50.0508 99.7415 50.1167 99.0713 50.1167ZM101.565 49.875V34.0217H104.773V40.1301H104.839C105.443 38.6689 106.685 37.856 108.453 37.856C111.002 37.856 112.584 39.6357 112.584 42.4812V49.875H109.376V43.1404C109.376 41.4924 108.563 40.5146 107.102 40.5146C105.685 40.5146 104.773 41.5913 104.773 43.1294V49.875H101.565ZM117.583 49.875V34.0217H124.482C127.471 34.0217 129.349 35.5598 129.349 37.9988V38.0208C129.349 39.7566 128.031 41.2397 126.284 41.4705V41.5364C128.492 41.7012 130.085 43.2612 130.085 45.3376V45.3596C130.085 48.1392 127.987 49.875 124.603 49.875H117.583ZM123.625 36.4827H120.901V40.6465H123.219C125.087 40.6465 126.086 39.8665 126.086 38.4932V38.4712C126.086 37.2078 125.174 36.4827 123.625 36.4827ZM123.614 42.8987H120.901V47.4031H123.757C125.658 47.4031 126.702 46.623 126.702 45.1509V45.1289C126.702 43.6787 125.647 42.8987 123.614 42.8987ZM136.161 50.1167C132.557 50.1167 130.371 47.7766 130.371 44.0083V43.9973C130.371 40.251 132.579 37.856 136.029 37.856C139.479 37.856 141.643 40.196 141.643 43.7556V44.7444H133.535C133.568 46.623 134.59 47.7217 136.227 47.7217C137.545 47.7217 138.347 46.9966 138.578 46.3374L138.6 46.2715H141.544L141.511 46.3923C141.148 48.1282 139.522 50.1167 136.161 50.1167ZM136.084 40.251C134.765 40.251 133.777 41.1299 133.568 42.7229H138.567C138.369 41.0969 137.413 40.251 136.084 40.251ZM143.807 53.7532C143.181 53.7532 142.544 53.6763 142.17 53.6104V51.2263C142.401 51.2703 142.774 51.3362 143.247 51.3362C144.203 51.3362 144.73 51.0615 145.016 50.2595L145.158 49.875L140.995 38.0977H144.521L147.004 47.3042H147.092L149.586 38.0977H152.97L148.927 50.0837C148.004 52.8633 146.422 53.7532 143.807 53.7532ZM158.177 50.1167C154.595 50.1167 152.343 47.8206 152.343 43.9863V43.9644C152.343 40.1741 154.65 37.856 158.166 37.856C161.693 37.856 164.011 40.1521 164.011 43.9644V43.9863C164.011 47.8315 161.737 50.1167 158.177 50.1167ZM158.188 47.6008C159.748 47.6008 160.748 46.2825 160.748 43.9863V43.9644C160.748 41.6902 159.726 40.3718 158.166 40.3718C156.617 40.3718 155.606 41.6902 155.606 43.9644V43.9863C155.606 46.2935 156.606 47.6008 158.188 47.6008ZM164.769 49.875V38.0977H167.977V40.0312H168.043C168.647 38.6799 169.855 37.856 171.635 37.856C174.228 37.856 175.7 39.5149 175.7 42.2725V49.875H172.492V42.9316C172.492 41.3936 171.767 40.5146 170.328 40.5146C168.889 40.5146 167.977 41.5693 167.977 43.1074V49.875H164.769ZM181.193 50.1167C178.227 50.1167 176.403 47.8096 176.403 43.9863V43.9753C176.403 40.1411 178.227 37.856 181.193 37.856C182.863 37.856 184.181 38.7129 184.819 40.1411H184.885V34.0217H188.093V49.875H184.885V47.8645H184.819C184.192 49.2598 182.896 50.1167 181.193 50.1167ZM182.27 47.458C183.83 47.458 184.896 46.1177 184.896 43.9863V43.9753C184.896 41.855 183.819 40.5146 182.27 40.5146C180.677 40.5146 179.666 41.822 179.666 43.9753V43.9863C179.666 46.1287 180.666 47.458 182.27 47.458Z"
        fill="white" />
</svg>