<svg width="160" height="39" viewBox="0 0 160 39" fill="none" xmlns="http://www.w3.org/2000/svg">
    <path
        d="M7.01341 24.537C7.01341 23.7834 7.09718 23.0501 7.25586 22.3454C7.47553 22.959 7.74079 23.577 8.04303 24.1912C8.96109 26.0565 10.2424 27.9304 11.7075 29.6003C13.1718 31.2694 14.835 32.7521 16.5267 33.8226C16.8996 34.0585 17.2767 34.2762 17.6558 34.4721C17.4391 34.486 17.2206 34.4931 17.0003 34.4931C11.4847 34.4931 7.01341 30.0356 7.01341 24.537Z"
        fill="#2860E9" />
    <path
        d="M10.5721 16.0225C10.8608 17.0031 11.2722 18.0007 11.7747 18.9867C12.8023 21.0029 14.2334 23.0156 15.8603 24.8031C17.4867 26.5901 19.3243 28.169 21.1751 29.3059C22.3385 30.0206 23.5301 30.5747 24.6937 30.8856C23.7188 32.0583 22.4796 33.0044 21.0684 33.6327C20.7689 33.7661 20.4616 33.8852 20.1472 33.9892C19.2388 33.7439 18.2657 33.2916 17.2671 32.6597C15.7084 31.6734 14.1431 30.2845 12.7474 28.6935C11.3523 27.1034 10.142 25.329 9.28336 23.5845C8.68068 22.3599 8.26189 21.1716 8.06422 20.086C8.11669 19.9815 8.17095 19.8781 8.22695 19.7758L10.5721 16.0225Z"
        fill="#2860E9" />
    <path
        d="M14.1328 10.3237C14.9254 13.1701 16.6942 16.1807 18.7893 18.682C20.2284 20.4002 21.8528 21.917 23.485 23.0099C24.6388 23.7825 25.8309 24.3662 26.9866 24.6378C26.9683 26.481 26.4488 28.2008 25.558 29.6725C24.4297 29.4527 23.186 28.9234 21.8998 28.1333C20.1795 27.0765 18.4397 25.5875 16.8835 23.8776C15.3278 22.1683 13.971 20.2555 13.0064 18.3628C12.2973 16.9714 11.8121 15.6146 11.603 14.3725L14.1328 10.3237Z"
        fill="#2860E9" />
    <path
        d="M25.1657 18.8029L25.187 18.8333C25.3926 19.1259 25.5827 19.43 25.7562 19.7443C26.334 20.7908 26.7284 21.952 26.8961 23.1864C26.0753 22.9339 25.1831 22.4878 24.2553 21.8665C22.7531 20.8607 21.2233 19.4392 19.8498 17.7993C17.4566 14.942 15.6311 11.5374 15.1774 8.6518L17.0003 5.73445L25.1657 18.8029Z"
        fill="#2860E9" />
    <path fill-rule="evenodd" clip-rule="evenodd"
        d="M26.9666 19.0802L26.3187 18.0432C26.5526 18.3762 26.769 18.7223 26.9666 19.0802Z"
        fill="#2860E9" />
    <path
        d="M39.0809 31V7.46131H50.3821C51.6952 7.46131 52.8468 7.61199 53.837 7.91336C54.8487 8.1932 55.6882 8.62372 56.3555 9.20492C57.0229 9.76459 57.518 10.4534 57.8408 11.2714C58.1853 12.0679 58.3575 13.0043 58.3575 14.0806C58.3575 15.4797 57.9915 16.6852 57.2596 17.6969C56.5493 18.7087 55.5483 19.3867 54.2568 19.7311V19.9572C55.4837 20.1939 56.3771 20.689 56.9368 21.4425C57.518 22.1959 57.8086 23.2291 57.8086 24.5422V28.3523C57.8086 28.7828 57.8193 29.2241 57.8408 29.6762C57.8839 30.1067 58.0023 30.548 58.196 31H53.9016C53.7724 30.6986 53.6756 30.3219 53.611 29.8699C53.5464 29.4178 53.5141 28.9012 53.5141 28.32V25.2848C53.5141 24.553 53.4065 23.9395 53.1912 23.4444C52.976 22.9493 52.5885 22.5726 52.0288 22.3143C51.4691 22.0344 50.6727 21.8945 49.6394 21.8945H43.3431V31H39.0809ZM43.3431 18.4719H49.7686C51.2969 18.4719 52.384 18.1167 53.0298 17.4063C53.6756 16.696 53.9985 15.7811 53.9985 14.6618C53.9985 13.7792 53.8155 13.0796 53.4495 12.563C53.1051 12.0248 52.61 11.6374 51.9642 11.4006C51.34 11.1423 50.6081 11.0131 49.7686 11.0131H43.3431V18.4719ZM68.1352 31.2906C66.3916 31.2906 64.9063 30.9354 63.6794 30.2251C62.4739 29.4932 61.5483 28.4707 60.9025 27.1576C60.2567 25.823 59.9338 24.2731 59.9338 22.508C59.9338 20.6783 60.2567 19.0961 60.9025 17.7615C61.5483 16.4054 62.4739 15.3614 63.6794 14.6295C64.8848 13.8976 66.3163 13.5316 67.9738 13.5316C69.8681 13.5316 71.418 13.9514 72.6234 14.7909C73.8504 15.6089 74.733 16.7498 75.2711 18.2136C75.8093 19.6773 75.9922 21.3563 75.82 23.2506H63.8731C63.8731 24.3485 64.0453 25.2741 64.3897 26.0275C64.7557 26.7594 65.2508 27.3191 65.875 27.7065C66.5208 28.0725 67.2742 28.2554 68.1352 28.2554C69.147 28.2554 69.9865 28.0186 70.6538 27.5451C71.3211 27.05 71.7516 26.415 71.9453 25.64H75.7232C75.594 26.8024 75.185 27.8142 74.4962 28.6752C73.8073 29.5147 72.914 30.1605 71.8162 30.6125C70.7184 31.0646 69.4914 31.2906 68.1352 31.2906ZM63.8731 21.0873L63.5179 20.6675H72.2682L71.8808 21.1196C71.9238 20.0648 71.7839 19.2037 71.461 18.5364C71.1381 17.8691 70.6753 17.374 70.0726 17.0511C69.4698 16.7283 68.7703 16.5668 67.9738 16.5668C67.1558 16.5668 66.4454 16.739 65.8427 17.0834C65.24 17.4279 64.7664 17.9445 64.422 18.6333C64.0776 19.3006 63.8946 20.1186 63.8731 21.0873ZM78.4531 36.3923L78.4854 13.8222H82.3601L82.4892 16.9866H82.7475C83.1565 15.9533 83.8454 15.1138 84.814 14.468C85.8042 13.8222 86.9989 13.4994 88.3981 13.4994C89.4313 13.4994 90.3677 13.6931 91.2072 14.0806C92.0683 14.4465 92.8002 15.0062 93.4029 15.7596C94.0272 16.513 94.5007 17.4494 94.8236 18.5687C95.168 19.6666 95.3402 20.9474 95.3402 22.4111C95.3402 24.3485 95.0496 25.9844 94.4684 27.3191C93.8872 28.6321 93.0692 29.6331 92.0145 30.3219C90.9812 30.9892 89.7758 31.3229 88.3981 31.3229C87.4725 31.3229 86.633 31.183 85.8796 30.9031C85.1261 30.6018 84.4804 30.1928 83.9422 29.6762C83.4256 29.138 83.0274 28.5245 82.7475 27.8357H82.4892V36.3923H78.4531ZM86.9128 28.0294C87.7738 28.0294 88.5273 27.8249 89.173 27.4159C89.8188 26.9854 90.3139 26.3611 90.6583 25.5432C91.0243 24.7036 91.2072 23.6596 91.2072 22.4111C91.2072 21.1411 91.0243 20.0971 90.6583 19.2791C90.3139 18.4396 89.8188 17.8153 89.173 17.4063C88.5273 16.9973 87.7738 16.7928 86.9128 16.7928C85.9441 16.7928 85.1369 17.0189 84.4911 17.4709C83.8454 17.923 83.361 18.5042 83.0381 19.2145C82.7152 19.9249 82.5538 20.689 82.5538 21.507V23.3152C82.5538 23.9179 82.6399 24.4991 82.8121 25.0588C83.0058 25.6185 83.2749 26.1244 83.6193 26.5764C83.9853 27.0069 84.4373 27.3621 84.9755 27.6419C85.5351 27.9003 86.1809 28.0294 86.9128 28.0294ZM104.085 31.2906C103.051 31.2906 102.104 31.1076 101.243 30.7417C100.404 30.3542 99.6717 29.7838 99.0474 29.0304C98.4447 28.277 97.9819 27.3513 97.659 26.2535C97.3361 25.1342 97.1747 23.8534 97.1747 22.4111C97.1747 20.4523 97.4545 18.8163 98.0142 17.5032C98.5954 16.1686 99.4026 15.1676 100.436 14.5003C101.491 13.833 102.707 13.4994 104.085 13.4994C105.032 13.4994 105.871 13.65 106.603 13.9514C107.356 14.2312 108.002 14.6295 108.54 15.1461C109.079 15.6627 109.488 16.2762 109.767 16.9866H109.993L110.155 13.8222H114.03V31H109.993V27.8034H109.767C109.358 28.8582 108.659 29.7084 107.669 30.3542C106.678 30.9785 105.484 31.2906 104.085 31.2906ZM105.602 27.9971C106.571 27.9971 107.367 27.7711 107.991 27.3191C108.637 26.867 109.122 26.2858 109.444 25.5754C109.767 24.8436 109.929 24.0794 109.929 23.2829V21.507C109.929 20.689 109.767 19.9249 109.444 19.2145C109.122 18.4826 108.637 17.9014 107.991 17.4709C107.367 17.0189 106.571 16.7928 105.602 16.7928C104.741 16.7928 103.988 16.9973 103.342 17.4063C102.696 17.8153 102.19 18.4396 101.824 19.2791C101.458 20.0971 101.275 21.1411 101.275 22.4111C101.275 23.6381 101.458 24.6714 101.824 25.5109C102.19 26.3504 102.696 26.9746 103.342 27.3836C103.988 27.7926 104.741 27.9971 105.602 27.9971ZM117.712 31V13.8222H121.748V31H117.712ZM117.712 11.4006V7.46131H121.748V11.4006H117.712ZM125.454 31V13.8222H129.328L129.49 17.0834H129.684C130.179 15.878 130.932 14.9847 131.944 14.4034C132.956 13.8007 134.086 13.4994 135.334 13.4994C136.195 13.4994 136.992 13.6393 137.724 13.9191C138.477 14.1774 139.123 14.5972 139.661 15.1784C140.221 15.7381 140.651 16.4807 140.953 17.4063C141.275 18.3104 141.437 19.4082 141.437 20.6998V31H137.401V21.5716C137.401 20.4953 137.272 19.6127 137.013 18.9239C136.755 18.2136 136.357 17.6862 135.819 17.3417C135.302 16.9973 134.624 16.8251 133.784 16.8251C132.88 16.8251 132.105 17.0404 131.46 17.4709C130.835 17.9014 130.351 18.4719 130.007 19.1822C129.662 19.8926 129.49 20.6783 129.49 21.5393V31H125.454ZM149.843 31C148.789 31 147.96 30.8493 147.357 30.548C146.776 30.2251 146.367 29.773 146.13 29.1918C145.893 28.6106 145.775 27.911 145.775 27.093V17.0834H142.611V13.8222H145.775V8.97889L149.779 8.55914V13.8222H153.427V17.0834H149.779V26.3504C149.779 26.8885 149.897 27.2545 150.134 27.4482C150.371 27.6204 150.737 27.7065 151.232 27.7065H153.427V31H149.843Z"
        fill="white" />
</svg>
    