<svg width="100%" height="100%" viewBox="0 0 20 31" fill="none" xmlns="http://www.w3.org/2000/svg">
    <path
        d="M7.08971 12.779L9.26325 1.36796C9.41808 0.555071 10.5819 0.55507 10.7368 1.36796L12.9103 12.779C12.965 13.0662 13.1815 13.2954 13.4651 13.3663L19.0896 14.7724C19.847 14.9618 19.847 16.0382 19.0896 16.2276L13.4651 17.6337C13.1815 17.7046 12.965 17.9338 12.9103 18.221L10.7368 29.632C10.5819 30.4449 9.41808 30.4449 9.26325 29.632L7.08971 18.221C7.03502 17.9338 6.81845 17.7046 6.53486 17.6337L0.910428 16.2276C0.152963 16.0382 0.152964 14.9618 0.910428 14.7724L6.53486 13.3663C6.81845 13.2954 7.03502 13.0662 7.08971 12.779Z"
        fill="#FFCE1E" />
</svg>
    