<svg width="422" height="325" viewBox="0 0 422 325" fill="none" xmlns="http://www.w3.org/2000/svg">
    <line x1="83.5" x2="83.5" y2="325.006" stroke="url(#paint0_linear_782_8373)" />
    <line x1="169.5" x2="169.5" y2="325.006" stroke="url(#paint1_linear_782_8373)" />
    <line x1="303.5" x2="303.5" y2="325.006" stroke="url(#paint2_linear_782_8373)" />
    <rect x="84" y="114" width="109" height="46" rx="7" fill="#F8F5FF" />
    <rect x="84" y="114" width="109" height="46" rx="7" stroke="#C3B0E8" strokeWidth="2" />
    <path
        d="M147.039 124.997C146.029 123.992 144.269 123.996 143.268 125.004L140.889 127.392L137.948 130.333H131.833C131.56 130.333 131.293 130.417 131.069 130.574C130.845 130.731 130.674 130.953 130.581 131.211L125.248 145.877C125.071 146.364 125.192 146.909 125.557 147.276L128.224 149.943C128.403 150.122 128.63 150.247 128.878 150.302C129.126 150.357 129.384 150.339 129.623 150.252L144.289 144.919C144.546 144.825 144.769 144.655 144.926 144.431C145.083 144.207 145.167 143.94 145.167 143.667V137.552L148.111 134.608L150.5 132.212C151.004 131.708 151.281 131.037 151.28 130.325C151.28 129.612 151.001 128.941 150.496 128.439L147.039 124.997ZM142.891 136.057C142.767 136.181 142.668 136.328 142.601 136.49C142.534 136.651 142.5 136.825 142.5 137V142.733L130.168 147.217L136.396 140.989C136.431 140.991 136.465 141 136.5 141C136.896 141 137.282 140.883 137.611 140.663C137.94 140.443 138.196 140.131 138.348 139.765C138.499 139.4 138.539 138.998 138.462 138.61C138.384 138.222 138.194 137.865 137.914 137.586C137.634 137.306 137.278 137.116 136.89 137.038C136.502 136.961 136.1 137.001 135.735 137.152C135.369 137.304 135.057 137.56 134.837 137.889C134.617 138.218 134.5 138.604 134.5 139C134.5 139.035 134.509 139.069 134.511 139.104L128.283 145.332L132.767 133H138.5C138.855 133 139.193 132.86 139.443 132.609L141.833 130.219L145.281 133.667L142.891 136.057ZM147.165 131.78L143.717 128.332L145.156 126.887L148.613 130.328L147.165 131.78Z"
        fill="#C3B0E8" />
    <rect x="-30" y="62" width="153" height="46" rx="7" fill="currenColor"
        className="fill-red-primary-light dark:fill-red-primary-dark" />
    <rect x="-30" y="62" width="153" height="46" rx="7" stroke="#E8B0B0" strokeWidth="2" />
    <path
        d="M46.5 82.3334C48.0347 82.3334 49.1667 81.2027 49.1667 79.6667C49.1667 78.1307 48.0347 77 46.5 77C44.9667 77 43.8333 78.1307 43.8333 79.6667C43.8333 81.2027 44.9667 82.3334 46.5 82.3334ZM46.5 83.6667C43.5547 83.6667 41.1667 85.816 41.1667 88.4667V88.9814H51.8333V88.4667C51.8333 85.816 49.4453 83.6667 46.5 83.6667Z"
        fill="#E8B0B0" />
    <path
        d="M55.8333 71.6667H37.1667C35.696 71.6667 34.5 72.8627 34.5 74.3334V91.6667C34.5 93.1374 35.696 94.3334 37.1667 94.3334H42.5L46.5 98.3334L50.5 94.3334H55.8333C57.304 94.3334 58.5 93.1374 58.5 91.6667V74.3334C58.5 72.8627 57.304 71.6667 55.8333 71.6667ZM49.1667 91.6667L46.5 94.3334L43.8333 91.6667H37.1667V74.3334H55.8333L55.836 91.6667H49.1667Z"
        fill="#E8B0B0" />
    <rect x="170" y="166" width="233" height="46" rx="7" fill="#F5FBFF" />
    <rect x="170" y="166" width="233" height="46" rx="7" stroke="#B0D8E8" strokeWidth="2" />
    <path
        d="M280.333 195.375L282 193.292L276.635 189L282 184.708L280.333 182.625L273.667 187.959C273.51 188.084 273.384 188.242 273.298 188.422C273.211 188.603 273.166 188.8 273.166 189C273.166 189.2 273.211 189.397 273.298 189.578C273.384 189.758 273.51 189.916 273.667 190.041L280.333 195.375ZM292.667 182.625L291 184.708L296.365 189L291 193.292L292.667 195.375L299.333 190.041C299.49 189.916 299.616 189.758 299.702 189.578C299.789 189.397 299.834 189.2 299.834 189C299.834 188.8 299.789 188.603 299.702 188.422C299.616 188.242 299.49 188.084 299.333 187.959L292.667 182.625ZM290.468 177.288L285.135 201.288L282.531 200.709L287.864 176.709L290.468 177.288Z"
        fill="#B0D8E8" />
    <rect x="304" y="218" width="148" height="46" rx="7" fill="#E6FFED" />
    <rect x="304" y="218" width="148" height="46" rx="7" stroke="#B8E8B0" strokeWidth="2" />
    <path
        d="M367.333 253H390V250.333H368.667V229H366V251.667C366 252.02 366.14 252.359 366.391 252.609C366.641 252.86 366.98 253 367.333 253Z"
        fill="#B8E8B0" />
    <path
        d="M375.333 238.333C376.806 238.333 378 237.139 378 235.667C378 234.194 376.806 233 375.333 233C373.861 233 372.667 234.194 372.667 235.667C372.667 237.139 373.861 238.333 375.333 238.333Z"
        fill="#B8E8B0" />
    <path
        d="M386 243.667C387.473 243.667 388.667 242.473 388.667 241C388.667 239.527 387.473 238.333 386 238.333C384.527 238.333 383.333 239.527 383.333 241C383.333 242.473 384.527 243.667 386 243.667Z"
        fill="#B8E8B0" />
    <path
        d="M377.333 245C378.438 245 379.333 244.105 379.333 243C379.333 241.895 378.438 241 377.333 241C376.229 241 375.333 241.895 375.333 243C375.333 244.105 376.229 245 377.333 245Z"
        fill="#B8E8B0" />
    <path
        d="M384 235.667C385.105 235.667 386 234.771 386 233.667C386 232.562 385.105 231.667 384 231.667C382.895 231.667 382 232.562 382 233.667C382 234.771 382.895 235.667 384 235.667Z"
        fill="#B8E8B0" />
    <defs>
        <linearGradient id="paint0_linear_782_8373" x1="82.5" y1="0" x2="82.5" y2="325.006"
            gradientUnits="userSpaceOnUse">
            <stop stopColor="#E0E0E0" stop-opacity="0" />
            <stop offset="0.49" stopColor="#E0E0E0" />
            <stop offset="1" stopColor="#E0E0E0" stop-opacity="0" />
        </linearGradient>
        <linearGradient id="paint1_linear_782_8373" x1="168.5" y1="0" x2="168.5" y2="325.006"
            gradientUnits="userSpaceOnUse">
            <stop stopColor="#E0E0E0" stop-opacity="0" />
            <stop offset="0.49" stopColor="#E0E0E0" />
            <stop offset="1" stopColor="#E0E0E0" stop-opacity="0" />
        </linearGradient>
        <linearGradient id="paint2_linear_782_8373" x1="302.5" y1="0" x2="302.5" y2="325.006"
            gradientUnits="userSpaceOnUse">
            <stop stopColor="#E0E0E0" stop-opacity="0" />
            <stop offset="0.49" stopColor="#E0E0E0" />
            <stop offset="1" stopColor="#E0E0E0" stop-opacity="0" />
        </linearGradient>
    </defs>
</svg>
    